<svg width="391" height="59" viewBox="0 0 391 59" fill="none" xmlns="http://www.w3.org/2000/svg">
<g filter="url(#filter0_d)">
<path d="M18.28 35.44H37.32L27.8 8.08L18.28 35.44ZM42.36 50L38.92 40.16H16.6L13.16 50H0.6L19.64 0.239997H35.96L55.08 50H42.36ZM76.1763 4.96V27.44H92.6563C93.7229 27.44 94.3896 27.28 94.6563 26.96C94.9763 26.64 95.1363 25.9733 95.1363 24.96V7.44C95.1363 6.37333 94.9763 5.70666 94.6563 5.44C94.3896 5.12 93.7229 4.96 92.6563 4.96H76.1763ZM76.1763 32.16V50H63.2163V0.239997H101.696C105.91 0.239997 108.016 2.34666 108.016 6.56V25.84C108.016 30.0533 105.91 32.16 101.696 32.16H97.7762L109.056 50H95.6163L84.8963 32.16H76.1763ZM132.499 35.44H151.539L142.019 8.08L132.499 35.44ZM156.579 50L153.139 40.16H130.819L127.379 50H114.819L133.859 0.239997H150.179L169.299 50H156.579ZM190.395 45.28H214.395V50H177.435V0.239997H190.395V45.28ZM235.389 35.44H254.429L244.909 8.08L235.389 35.44ZM259.469 50L256.029 40.16H233.709L230.269 50H217.709L236.749 0.239997H253.069L272.189 50H259.469ZM309.206 42.8V29.76C309.206 28.7467 309.046 28.08 308.726 27.76C308.459 27.44 307.792 27.28 306.726 27.28H285.126C280.912 27.28 278.806 25.1733 278.806 20.96V6.56C278.806 2.34666 280.912 0.239997 285.126 0.239997H315.526C319.739 0.239997 321.846 2.34666 321.846 6.56V15.44H308.966V7.44C308.966 6.37333 308.806 5.70666 308.486 5.44C308.166 5.12 307.499 4.96 306.486 4.96H294.246C293.179 4.96 292.486 5.12 292.166 5.44C291.899 5.70666 291.766 6.37333 291.766 7.44V20.08C291.766 21.1467 291.899 21.84 292.166 22.16C292.486 22.4267 293.179 22.56 294.246 22.56H315.766C319.979 22.56 322.086 24.6667 322.086 28.88V43.68C322.086 47.8933 319.979 50 315.766 50H285.366C281.152 50 279.046 47.8933 279.046 43.68V34.8H291.926V42.8C291.926 43.8667 292.059 44.56 292.326 44.88C292.646 45.1467 293.339 45.28 294.406 45.28H306.726C307.792 45.28 308.459 45.1467 308.726 44.88C309.046 44.56 309.206 43.8667 309.206 42.8ZM368.641 0.239997H381.601V50H368.641V27.44H346.801V50H333.841V0.239997H346.801V22.72H368.641V0.239997Z" fill="black"/>
</g>
<defs>
<filter id="filter0_d" x="0.600006" y="0.23999" width="390.001" height="58.76" filterUnits="userSpaceOnUse" color-interpolation-filters="sRGB">
<feFlood flood-opacity="0" result="BackgroundImageFix"/>
<feColorMatrix in="SourceAlpha" type="matrix" values="0 0 0 0 0 0 0 0 0 0 0 0 0 0 0 0 0 0 127 0" result="hardAlpha"/>
<feOffset dx="5" dy="5"/>
<feGaussianBlur stdDeviation="2"/>
<feComposite in2="hardAlpha" operator="out"/>
<feColorMatrix type="matrix" values="0 0 0 0 0 0 0 0 0 0 0 0 0 0 0 0 0 0 0.25 0"/>
<feBlend mode="normal" in2="BackgroundImageFix" result="effect1_dropShadow"/>
<feBlend mode="normal" in="SourceGraphic" in2="effect1_dropShadow" result="shape"/>
</filter>
</defs>
</svg>
